<svg width="1000" height="1000" viewBox="0 0 1000 1000" fill="none" xmlns="http://www.w3.org/2000/svg">
<rect width="1000" height="1000" fill="#DDE1FF"/>
<mask id="mask0_62_2" style="mask-type:alpha" maskUnits="userSpaceOnUse" x="0" y="0" width="1000" height="1000">
<rect width="1000" height="1000" fill="#DDE1FF"/>
</mask>
<g mask="url(#mask0_62_2)">
<ellipse cx="455.838" cy="472.693" rx="179.257" ry="178.143" transform="rotate(-45 455.838 472.693)" fill="#3248FF"/>
<path d="M637.711 635.576L639.112 912.345L621.783 912.433L620.383 635.663L637.711 635.576ZM592.76 686.855L594.046 941.052L576.719 941.139L575.432 686.942L592.76 686.855ZM258.229 394.753C272.821 374.629 293.704 352.67 314.127 338.855C338.289 322.51 367.76 313.104 396.792 311.3C421.468 309.766 450.112 312.841 471.585 326.258C488.157 336.612 502.006 349.358 513.584 364.367L514.126 276.578L514.222 276.578C514.983 254.093 522.575 240.358 540.153 222.78C542.667 220.266 545.289 217.923 548.001 215.751L548.758 150.528C547.34 149.741 546.007 148.746 544.803 147.542C537.847 140.585 537.847 129.306 544.804 122.349C551.761 115.392 563.04 115.392 569.997 122.348C576.954 129.305 576.954 140.585 569.997 147.542C568.946 148.593 567.795 149.483 566.577 150.216L565.948 204.436C591.591 192.067 621.656 191.94 647.391 204.054L648.029 148.994C646.584 148.201 645.226 147.192 644.001 145.967C637.045 139.011 637.045 127.732 644.002 120.775C650.959 113.818 662.238 113.817 669.195 120.774C676.152 127.731 676.152 139.01 669.195 145.967C668.165 146.997 667.04 147.873 665.849 148.598L665.08 214.912C668.172 217.317 671.15 219.938 673.991 222.78C688.582 237.371 698.397 258.208 699.184 271.591C699.247 272.667 699.282 273.974 699.281 275.481L699.178 275.487L694.921 833.036L663.669 832.843L665.158 577.053C655.839 588.112 643.307 601.052 635.413 609.339C617.345 628.307 596.548 645.598 573.144 657.706C563.624 662.631 553.84 667.354 543.89 671.582L542.849 840.63L510.649 840.431L511.618 683.043C506.16 684.557 500.683 685.837 495.202 686.836C460.165 693.228 430.737 695.908 399.153 688.412C369.834 681.453 343.913 669.147 319.636 651.409C292.914 631.884 265.701 605.129 251.143 575.042C237.83 547.529 231.815 512.511 232.248 482.142C232.692 450.927 239.692 420.318 258.229 394.753ZM563.771 246.4C553.722 256.45 547.895 269.123 546.292 282.215L544.103 637.135C553.423 632.833 562.474 628.011 570.782 622.278C587.533 610.718 601.726 598.699 615.658 583.701C629.693 568.592 642.944 553.361 651.086 534.101C657.563 518.78 663.032 490.062 665.759 474.03L666.906 277.103L666.999 277.096C664.644 265.847 659.106 255.132 650.373 246.399C626.459 222.485 587.686 222.486 563.771 246.4ZM318.136 369.217C298.427 385.893 280.667 406.87 270.825 430.968C260.276 456.798 260.233 484.295 264.527 511.271C268.634 537.072 276.645 558.763 291.294 580.553C291.317 580.583 313.332 609.521 331.446 623.854C359.607 646.136 399.002 661.831 435.368 663.218C461.541 664.216 487.361 658.94 511.82 650.358L512.575 528.062C500.716 541.519 485.989 551.069 468.434 557.72C449.489 564.898 421.728 569.407 402.302 562.445C377.762 553.65 358.45 541.445 344.83 520.719C328.89 496.462 327.93 469.066 339.32 442.777C349.648 418.937 369.832 397.804 396.004 392.39C424.621 386.471 457.345 399.698 470.01 427.031C480.033 448.664 477.816 470.121 465.286 490.014C465.267 490.041 451.114 511.028 436.943 515.207C419.636 520.312 406.305 516.574 392.855 504.185C383.946 495.979 375.83 486.574 371.218 475.293C370.995 474.746 371.304 474.132 371.873 473.974L398.452 466.591C398.87 466.474 399.313 466.639 399.554 466.999C406.034 476.701 416.86 489.783 429.858 487.653C443.538 485.411 446.544 463.2 444.816 452.224C442.169 435.408 430.81 424.478 414.112 421.52C396.917 418.475 383.139 426.37 373.96 441.202C365.981 454.094 361.16 466.622 362.937 482.141C366.566 513.826 403.253 537.563 433.794 537.251C456.106 537.023 478.976 525.483 493.628 508.909C511.193 489.04 515.495 466.515 511.736 440.415C506.875 420.277 509.525 404.323 496.851 387.324C484.171 370.316 460.1 355.052 440.093 348.301C419.097 343.508 399.7 342.962 378.684 346.728C356.155 350.764 336.271 354.637 318.136 369.217ZM579.445 276.658C587.271 268.832 599.961 268.832 607.787 276.658C615.613 284.484 615.613 297.174 607.787 305C599.96 312.827 587.271 312.827 579.445 305C571.618 297.174 571.618 284.484 579.445 276.658Z" fill="#000C6E"/>
</g>
</svg>
